  <svg width="200" height="55" viewBox="0 0 110 33" fill="none" xmlns="http://www.w3.org/2000/svg">
                                 <path d="M45.832 13.5035C45.5462 12.4175 44.846 11.6173 43.4742 11.6173C41.4451 11.6173 40.602 13.4035 40.602 15.2183C40.602 17.033 41.4451 18.8192 43.4742 18.8192C44.946 18.8192 45.7605 17.7189 45.8891 16.3471H47.5039C47.3752 18.6192 45.7605 20.1767 43.4742 20.1767C40.6306 20.1767 38.9302 17.919 38.9302 15.2183C38.9302 12.5176 40.6306 10.2598 43.4742 10.2598C45.6034 10.2741 47.2895 11.4601 47.4896 13.4892H45.832V13.5035Z" fill="#FAFAFA" fill-opacity="0.8"></path>
                                 <path d="M48.4897 16.5329C48.4897 14.4324 49.7472 12.932 51.9478 12.932C54.1484 12.932 55.4058 14.4467 55.4058 16.5329C55.4058 18.6335 54.1484 20.1482 51.9478 20.1482C49.7472 20.1482 48.4897 18.6335 48.4897 16.5329ZM53.8912 16.5329C53.8912 15.3469 53.291 14.118 51.9478 14.118C50.6046 14.118 50.0044 15.3469 50.0044 16.5329C50.0044 17.719 50.6046 18.9622 51.9478 18.9622C53.291 18.9622 53.8912 17.719 53.8912 16.5329Z" fill="#FAFAFA" fill-opacity="0.8"></path>
                                 <path d="M56.7065 10.4884H58.2212V11.9173H56.7065V10.4884ZM56.7065 13.1034H58.2212V19.9623H56.7065V13.1034Z" fill="#FAFAFA" fill-opacity="0.8"></path>
                                 <path d="M59.8644 13.1034H61.2933V14.118L61.3219 14.1466C61.7649 13.3892 62.5794 12.9177 63.451 12.932C64.9371 12.932 65.8803 13.7322 65.8803 15.2611V19.9767H64.3656V15.6612C64.337 14.5895 63.9083 14.118 63.0224 14.118C62.0221 14.118 61.3648 14.9182 61.3648 15.9185V19.9624H59.8501V13.1034H59.8644Z" fill="#FAFAFA" fill-opacity="0.8"></path>
                                 <path d="M75.9544 19.9624H74.8969L74.6397 18.8478C73.7538 19.8481 72.9393 20.191 71.7818 20.191C68.9382 20.191 67.2378 17.9333 67.2378 15.2326C67.2378 12.5318 68.9382 10.2598 71.7818 10.2598C73.8538 10.2598 75.5828 11.3601 75.8401 13.4892H74.2253C74.0682 12.2461 72.9822 11.603 71.7818 11.603C69.7527 11.603 68.8954 13.3892 68.8954 15.204C68.8954 17.0187 69.7527 18.8049 71.7818 18.8049C73.4823 18.8335 74.4111 17.8047 74.4397 16.2042H71.9247V14.9753H75.9544V19.9624Z" fill="#FAFAFA" fill-opacity="0.8"></path>
                                 <path d="M78.7266 16.9188C78.7266 17.9905 79.3125 18.9479 80.5699 18.9479C81.4416 18.9479 81.9703 18.5621 82.2418 17.8047H83.6708C83.3421 19.3051 82.0703 20.1339 80.5699 20.1339C78.4265 20.1339 77.2119 18.6335 77.2119 16.533C77.2119 14.5896 78.4837 12.9177 80.5271 12.9177C82.6848 12.9177 84.0137 14.8754 83.7708 16.9188H78.7266ZM82.2561 15.9185C82.1989 14.9611 81.5559 14.1037 80.5271 14.1037C79.4839 14.1037 78.7695 14.904 78.7266 15.9185H82.2561Z" fill="#FAFAFA" fill-opacity="0.8"></path>
                                 <path d="M89.5582 15.4041C89.4439 14.561 88.8294 14.118 87.9863 14.118C87.2004 14.118 86.1001 14.5324 86.1001 16.6187C86.1001 17.7619 86.6003 18.9622 87.9149 18.9622C88.7866 18.9622 89.401 18.3763 89.5439 17.3903H91.0586C90.7728 19.1622 89.6725 20.1482 87.9149 20.1482C85.7715 20.1482 84.5854 18.6192 84.5854 16.6044C84.5854 14.5324 85.7143 12.9177 87.9721 12.9177C89.5582 12.9177 90.9157 13.7179 91.0586 15.4041H89.5582Z" fill="#FAFAFA" fill-opacity="0.8"></path>
                                 <path d="M92.644 10.5456H94.1587V15.9327L96.9023 13.1606H98.7599L96.1307 15.6755L99.0171 20.0052H97.1595L95.059 16.6758L94.1587 17.5474V20.0052H92.644V10.5456Z" fill="#FAFAFA" fill-opacity="0.8"></path>
                                 <path d="M99.103 16.5329C99.103 14.4324 100.361 12.932 102.561 12.932C104.762 12.932 106.019 14.4467 106.019 16.5329C106.019 18.6335 104.762 20.1482 102.561 20.1482C100.361 20.1482 99.103 18.6335 99.103 16.5329ZM104.519 16.5329C104.519 15.3469 103.919 14.118 102.561 14.118C101.204 14.118 100.618 15.3469 100.618 16.5329C100.618 17.719 101.218 18.9622 102.561 18.9622C103.904 18.9622 104.519 17.719 104.519 16.5329Z" fill="#FAFAFA" fill-opacity="0.8"></path>
                                 <path d="M30.5424 16.3614C30.571 23.8491 24.5265 29.9507 17.0389 29.9793C9.55118 30.0079 3.44958 23.9634 3.421 16.4757C3.39242 8.98807 9.43686 2.88647 16.9245 2.85789C24.4122 2.82931 30.5138 8.87375 30.5424 16.3614Z" fill="#8DC63F"></path>
                                 <path d="M29.5141 16.3614C29.5427 23.2918 23.9555 28.9218 17.0252 28.9647C10.0948 29.0076 4.46472 23.4061 4.43614 16.4757C4.40757 9.54534 9.99475 3.91529 16.9251 3.87242C23.8412 3.84384 29.4856 9.43102 29.5141 16.3614Z" fill="#F9E988"></path>
                                 <path d="M17.2104 4.687C18.0107 4.54411 18.8252 4.54411 19.6254 4.687C20.4256 4.81561 21.2115 5.07282 21.926 5.45863C22.6404 5.85874 23.2549 6.38745 23.8693 6.88758C24.4838 7.38771 25.0982 7.90213 25.6841 8.45942C26.2843 9.01671 26.7987 9.63116 27.2274 10.3171C27.6703 11.0029 28.0276 11.7317 28.3134 12.4891C28.8564 14.018 28.9993 15.6613 28.7563 17.2617H28.6706C28.442 15.7328 28.0419 14.2324 27.4989 12.7748C27.2416 12.0604 26.9273 11.3602 26.5843 10.6886C26.2128 10.017 25.8127 9.35966 25.3697 8.73092C24.9125 8.0879 24.3695 7.53061 23.7264 7.07334C23.0977 6.61608 22.3547 6.33029 21.6545 6.0445C20.9543 5.75871 20.2398 5.48722 19.4968 5.27287C18.7537 5.05853 18.0107 4.90135 17.2247 4.74416L17.2104 4.687Z" fill="white"></path>
                                 <path d="M23.3407 11.9316C22.4261 11.6601 21.483 11.2886 20.5256 10.9171C20.4685 10.6742 20.2541 10.3741 19.8254 10.0168C19.1967 9.47385 18.025 9.48814 17.0104 9.73106C15.8958 9.47385 14.7813 9.37382 13.7238 9.63103C5.05014 12.0174 9.98001 17.8475 6.79346 23.7062C7.25072 24.6635 12.1234 30.2793 19.1967 28.7646C19.1967 28.7646 16.7818 22.9631 22.2261 20.1767C26.6558 17.9046 29.8566 13.7178 23.3407 11.9316Z" fill="#8BC53F"></path>
                                 <path d="M24.4123 15.747C24.4123 16.0328 24.1836 16.2757 23.8979 16.2757C23.6121 16.2757 23.3691 16.0471 23.3691 15.7613C23.3691 15.4755 23.5978 15.2326 23.8836 15.2326C24.1694 15.2183 24.4123 15.4612 24.4123 15.747Z" fill="white"></path>
                                 <path d="M17.0244 9.73109C17.6532 9.77396 19.9395 10.517 20.5253 10.9171C20.0395 9.48817 18.3819 9.3024 17.0244 9.73109Z" fill="#009345"></path>
                                 <path d="M17.625 13.3321C17.625 14.6753 16.539 15.7613 15.1958 15.7613C13.8526 15.7613 12.7666 14.6753 12.7666 13.3321C12.7666 11.9889 13.8526 10.9029 15.1958 10.9029C16.539 10.9029 17.625 11.9889 17.625 13.3321Z" fill="white"></path>
                                 <path d="M16.9102 13.3463C16.9102 14.2894 16.1528 15.0468 15.2097 15.0611C14.2666 15.0611 13.5093 14.3037 13.5093 13.3606C13.5093 12.4175 14.2666 11.6602 15.2097 11.6602C16.1385 11.6459 16.9102 12.4032 16.9102 13.3463Z" fill="#58595B"></path>
                                 <path d="M26.3697 16.8187C24.3978 18.2048 22.1686 19.2479 18.9964 19.2479C17.5103 19.2479 17.2102 17.6761 16.2385 18.4477C15.7241 18.8478 13.9522 19.7338 12.5375 19.6766C11.1229 19.6194 8.82226 18.7764 8.17923 15.7613C7.92202 18.7907 7.79342 21.0055 6.66455 23.5633C8.92229 27.1786 14.3094 29.9793 19.2107 28.779C18.682 25.1066 21.8971 21.5199 23.6976 19.6766C24.3692 18.9621 25.6981 17.819 26.3697 16.8187Z" fill="#8BC53F"></path>
                                 <path d="M26.2987 16.9044C25.67 17.4474 24.9698 17.8904 24.2267 18.2334C23.4837 18.5906 22.6978 18.8764 21.8975 19.0764C21.0973 19.2908 20.2543 19.4337 19.4112 19.3622C18.5681 19.2908 17.6964 18.9907 17.1392 18.362L17.1677 18.3334C17.8536 18.7764 18.6538 18.9335 19.4398 18.9621C20.24 18.9907 21.0402 18.9192 21.8261 18.7621C22.6263 18.5906 23.3979 18.362 24.141 18.0476C24.8983 17.7618 25.6128 17.3617 26.2701 16.8759L26.2987 16.9044Z" fill="#58595B"></path>
                              </svg>