   <svg width="154" height="45" viewBox="0 0 77 25" fill="none" xmlns="http://www.w3.org/2000/svg">
                                 <path d="M55.7012 9.76505C54.1212 9.96144 52.9562 10.8586 52.5277 12.1976C52.2331 13.1082 52.2688 13.9741 52.6393 14.8534C53.0767 15.8934 54.0185 16.6343 55.2683 16.9155C55.6298 17.0003 56.5627 17.0048 56.9376 16.9334C58.3882 16.6477 59.4014 15.7461 59.821 14.3803C59.9192 14.0544 59.9326 13.9562 59.9326 13.376C59.9326 12.7957 59.9192 12.6975 59.821 12.3717C59.4059 11.0237 58.4284 10.1355 57.0313 9.84093C56.7412 9.7829 55.9467 9.73827 55.7012 9.76505ZM56.585 11.537C57.1072 11.6754 57.6027 12.0146 57.8303 12.4119C58.1829 13.01 58.1695 13.8 57.8035 14.3713C57.1474 15.4024 55.6477 15.572 54.7461 14.715C53.9962 14.0009 53.9694 12.8671 54.6836 12.095C55.1612 11.5861 55.9199 11.3674 56.585 11.537Z" fill="#FAFAFA" fill-opacity="0.8"></path>
                                 <path d="M63.4229 9.76505C61.8428 9.96144 60.6779 10.8586 60.2494 12.1976C59.9548 13.1082 59.9905 13.9741 60.361 14.8534C60.7984 15.8934 61.7402 16.6343 62.99 16.9155C63.3515 17.0003 64.2844 17.0048 64.6593 16.9334C66.1099 16.6477 67.1231 15.7461 67.5427 14.3803C67.6409 14.0544 67.6543 13.9562 67.6543 13.376C67.6543 12.7957 67.6409 12.6975 67.5427 12.3717C67.1276 11.0237 66.1501 10.1355 64.753 9.84093C64.4629 9.7829 63.6684 9.73827 63.4229 9.76505ZM64.3111 11.537C64.8378 11.6754 65.3288 12.0146 65.5564 12.4119C65.9091 13.01 65.8957 13.8 65.5297 14.3713C64.8735 15.4024 63.3738 15.572 62.4722 14.715C61.7223 14.0009 61.6956 12.8671 62.4097 12.095C62.8828 11.5861 63.6416 11.3674 64.3111 11.537Z" fill="#FAFAFA" fill-opacity="0.8"></path>
                                 <path d="M73.8227 9.7874C72.9032 9.9213 72.2113 10.5105 71.9882 11.3585C71.7739 12.1575 71.9257 12.9743 72.3542 13.3716C72.6086 13.6081 72.9121 13.7465 73.7468 14.0143C74.5547 14.2732 74.7377 14.3848 74.8225 14.657C74.9162 14.9695 74.6841 15.3444 74.3315 15.4426C74.1396 15.4962 73.778 15.4962 73.537 15.4381C73.2736 15.3756 72.8005 15.1435 72.5997 14.9695C72.5104 14.8847 72.4077 14.8222 72.3899 14.8222C72.372 14.8222 72.2694 14.9739 72.1712 15.1614C72.0328 15.4247 71.9882 15.4828 71.9792 15.4114L71.9659 15.3221H70.8902H69.8189V12.6172V9.91238H68.9307H68.0425V13.3805V16.8486H70.0019H71.9614V16.6567C71.9614 16.554 71.9703 16.4692 71.9792 16.4692C71.9882 16.4692 72.1489 16.5451 72.3363 16.6299C72.9166 16.9021 73.287 16.9825 74.0057 16.9825C74.7064 16.9825 75.0367 16.92 75.4697 16.7102C75.8134 16.5451 76.2776 16.0853 76.4338 15.764C76.7418 15.1212 76.7864 14.2553 76.5275 13.7063C76.4829 13.6037 76.3311 13.4028 76.1883 13.2644C75.8848 12.9609 75.5589 12.7958 74.7243 12.528C74.394 12.4253 74.0637 12.3003 73.9878 12.2557C73.72 12.0905 73.6664 11.729 73.8762 11.5014C74.2422 11.1086 74.8939 11.1443 75.5723 11.5951L75.7062 11.6799L76.0678 10.9881C76.2597 10.6131 76.4204 10.2962 76.4115 10.2918C76.3713 10.2516 75.8669 10.0507 75.5813 9.96147C74.9787 9.77401 74.3449 9.70706 73.8227 9.7874Z" fill="#FAFAFA" fill-opacity="0.8"></path>
                                 <path d="M23.9214 12.394V16.9646H25.5372C26.4254 16.9646 27.3538 16.9378 27.5948 16.911C29.59 16.6655 31.0629 15.4559 31.536 13.6795C31.6923 13.0903 31.728 12.0548 31.6164 11.4388C31.3887 10.2426 30.7683 9.27851 29.8131 8.62685C29.3847 8.33226 29.0008 8.17157 28.3848 8.00196C27.9028 7.87252 27.8269 7.87252 25.9076 7.84574L23.9258 7.82343V12.394H23.9214ZM27.4475 9.68915C28.7017 9.95696 29.5364 11.0059 29.5364 12.3181C29.5319 13.1885 29.2641 13.9384 28.7642 14.4338C28.2688 14.9337 27.5323 15.1747 26.5057 15.1792H26.0192V12.3985V9.61773H26.5593C26.8539 9.61773 27.2511 9.65344 27.4475 9.68915Z" fill="#FAFAFA" fill-opacity="0.8"></path>
                                 <path d="M32.3706 12.3985V16.9646L36.2181 16.9601H40.0611L41.052 15.5675C41.601 14.8088 42.0608 14.1839 42.0742 14.1839C42.0965 14.1839 42.5562 14.8088 43.1008 15.5765L44.0961 16.9691H45.3459C46.0288 16.9691 46.5912 16.9512 46.5912 16.9378C46.5912 16.92 45.8547 15.8934 44.9665 14.657L43.3418 12.4074L44.8951 10.2382C45.752 9.05091 46.4974 8.02877 46.5465 7.97075C46.6447 7.87255 46.6447 7.88594 46.6447 8.80095V9.72935H47.591H48.5372V13.3492V16.9691H49.6665H50.7957V13.3492V9.72935L51.8982 9.72042L52.9962 9.70257L52.4071 8.77417L51.8179 7.84577L47.9615 7.84131H44.1006L43.1097 9.23391C42.5607 9.99269 42.1009 10.6176 42.0875 10.6265C42.0697 10.6265 41.61 10.0016 41.0654 9.23391L40.0701 7.84131H36.227H32.3795V12.3985H32.3706ZM39.1595 10.1132C40.0433 11.3362 40.7664 12.3628 40.7664 12.394C40.7664 12.4253 40.0433 13.4608 39.1551 14.6927L37.5393 16.9334L37.5214 16.0585L37.5125 15.1837H35.9905H34.4684V14.1571V13.135H35.7003H36.9323V12.2691V11.4031H35.7003H34.4684V10.5105V9.61776H35.9905H37.5125V8.75185C37.5125 8.27426 37.5214 7.88594 37.5348 7.88594C37.5482 7.88594 38.2758 8.89022 39.1595 10.1132Z" fill="#FAFAFA" fill-opacity="0.8"></path>
                                 <path fill-rule="evenodd" clip-rule="evenodd" d="M7.98663 1.77101C6.55832 2.5164 5.38443 3.14575 5.3889 3.17253C5.3889 3.23948 8.82129 4.97577 8.94181 4.9713C8.99537 4.9713 9.39708 4.78384 9.8345 4.56067L10.629 4.15449L11.4949 4.60084L12.3608 5.04718L13.7802 4.40891C15.9137 3.44926 16.1369 3.34214 16.1012 3.3109C16.0566 3.2618 15.2888 2.85116 13.2089 1.75762C12.2046 1.23093 11.2316 0.708703 11.0441 0.606043C10.8566 0.49892 10.6781 0.418579 10.6468 0.418579C10.6156 0.418579 9.41493 1.02561 7.98663 1.77101ZM1.71547 5.0204L0.224679 5.78812V9.16249C0.224679 11.0193 0.242532 12.5369 0.269313 12.5369C0.29163 12.5369 1.02364 12.22 1.89847 11.8316L3.483 11.1264V7.56904L4.25518 7.9886C4.85328 8.31443 5.44692 8.6358 6.04502 8.96163L7.06269 9.51064L7.5135 9.30532C7.79916 9.17588 8.08036 9.04644 8.36156 8.917C8.58027 8.81434 9.11588 8.57331 9.5533 8.38138C9.99072 8.18945 10.3924 7.99306 10.4505 7.94843C10.5263 7.8904 9.59793 7.37711 7.01806 6.05146C5.07199 5.05165 3.41605 4.2393 3.34017 4.24376C3.26429 4.24822 2.53228 4.59637 1.71547 5.0204ZM16.3645 5.23465C15.3513 5.69438 14.5211 6.08717 14.5211 6.10948C14.5211 6.1318 15.0746 6.4621 15.7486 6.84149C16.427 7.22088 16.976 7.55118 16.976 7.57796C16.976 7.60474 16.3779 7.89487 15.6459 8.2207C14.9139 8.55099 13.066 9.38566 11.5351 10.0775L6.41549 12.394C5.12555 12.9743 3.96505 13.501 3.83561 13.559C1.20664 14.7507 0.479096 15.081 0.3809 15.1391C0.282703 15.1971 0.260386 15.5274 0.242532 17.1922L0.220215 19.1785L1.55032 19.8569L2.88043 20.5354L4.7283 19.7007C5.74151 19.241 6.57618 18.8437 6.57618 18.8125C6.57618 18.7812 6.38871 18.6607 6.16107 18.5402C5.93344 18.4197 5.46031 18.1519 5.1077 17.9466C4.75955 17.7413 4.4114 17.5538 4.33552 17.527C4.25964 17.5002 4.19715 17.4601 4.19715 17.4288C4.19715 17.402 5.0095 17.0137 6.00485 16.5718C7.93307 15.7104 9.40601 15.0453 12.5706 13.6126C13.9855 12.9743 15.4004 12.3315 16.8198 11.6933C18.0651 11.1309 19.5113 10.4747 20.0335 10.2337L20.9842 9.7963L21.0065 7.78774L21.0288 5.77919L19.6809 5.09182C18.9399 4.71242 18.3017 4.39998 18.2704 4.39998C18.2347 4.39998 17.3777 4.77937 16.3645 5.23465ZM20.6271 12.4833C20.4263 12.5815 20.0335 12.7645 19.7523 12.8895C19.4711 13.0144 18.9355 13.2555 18.565 13.4251L17.891 13.7331L17.8776 15.4961C17.8687 16.4647 17.833 17.2547 17.7973 17.2503C17.717 17.2369 16.4538 16.5897 15.1817 15.9068C14.2622 15.4158 14.2042 15.3935 13.99 15.5006C13.865 15.5631 13.1196 15.8978 12.334 16.2415C11.5485 16.5897 10.8789 16.8932 10.8477 16.9244C10.8165 16.9512 12.3965 17.8082 14.3649 18.8303L17.9357 20.6871L19.4622 19.8971C20.3013 19.4641 21.0155 19.0669 21.0467 19.0178C21.1226 18.9062 21.1136 12.2914 21.0422 12.3003C21.011 12.3048 20.8235 12.3851 20.6271 12.4833ZM12.1733 20.2452C11.91 20.3568 11.6422 20.4729 11.3789 20.5889C10.5799 20.9326 10.7361 20.946 9.7854 20.4729C9.15159 20.156 8.87932 20.0622 8.7588 20.1069C8.66954 20.1426 7.90629 20.4863 7.05823 20.8701C6.21464 21.254 5.49156 21.5709 5.45585 21.5709C5.09877 21.5709 5.69241 21.9235 7.96877 23.0706L10.6379 24.4186L11.7627 23.8651C12.3787 23.5616 13.6284 22.9501 14.5301 22.5082C15.4361 22.0663 16.1637 21.6959 16.1503 21.678C16.1369 21.6646 15.3781 21.2763 14.4631 20.8121L12.8027 19.973L12.1733 20.2452Z" fill="#05A3C9"></path>
                              </svg>