 <svg width="200" height="120" viewBox="0 0 141 28" fill="none" xmlns="http://www.w3.org/2000/svg">
        <path fill-rule="evenodd" clip-rule="evenodd" d="M40.9704 9.25191C40.9704 8.91858 40.7204 8.50191 40.4704 8.33525C39.637 7.66858 38.5537 7.33525 37.2204 7.41858C34.2204 7.41858 31.7204 9.91858 31.7204 13.0019C31.7204 16.0852 34.2204 18.5852 37.2204 18.5852C38.5537 18.5852 39.887 18.0852 40.8037 17.2519C41.0537 17.0852 41.3037 16.7519 41.3037 16.4186C41.3037 15.8352 40.887 15.4186 40.387 15.4186C40.2204 15.4186 39.9704 15.5019 39.8037 15.5852C39.137 16.1686 38.3037 16.5852 37.3037 16.5852C35.3037 16.5852 33.9704 15.0019 33.9704 13.0019C33.9704 11.0019 35.3037 9.41858 37.3037 9.41858C38.137 9.41858 38.887 9.66858 39.5537 10.1686C39.7204 10.2519 39.8037 10.2519 39.9704 10.2519C40.4704 10.2519 40.9704 9.83524 40.9704 9.25191ZM49.887 14.5852C49.887 12.4186 48.137 10.6686 46.0537 10.6686C43.887 10.6686 42.0537 12.4186 42.0537 14.5852C42.0537 16.7519 43.887 18.5852 46.0537 18.5852C48.137 18.5852 49.887 16.7519 49.887 14.5852ZM47.7204 14.5852C47.7204 15.7519 46.9704 16.5852 46.0537 16.5852C45.0537 16.5852 44.2204 15.7519 44.2204 14.5852C44.2204 13.4186 45.0537 12.6686 46.0537 12.6686C46.9704 12.6686 47.7204 13.4186 47.7204 14.5852ZM51.137 11.8352V17.3352C51.137 17.9186 51.637 18.4186 52.2204 18.4186C52.8037 18.4186 53.3037 17.9186 53.3037 17.3352V11.8352C53.3037 11.2519 52.8037 10.7519 52.2204 10.7519C51.637 10.7519 51.137 11.2519 51.137 11.8352ZM52.2204 7.41858C51.5537 7.41858 50.9704 7.91858 50.9704 8.66858C50.9704 9.33525 51.5537 9.91858 52.2204 9.91858C52.887 9.91858 53.4704 9.33525 53.4704 8.66858C53.4704 8.00191 52.887 7.41858 52.2204 7.41858ZM57.387 17.3352V14.3352C57.387 13.4186 57.8037 12.5852 58.637 12.5852C60.0537 12.5852 60.137 13.4186 60.137 14.3352V17.3352C60.137 17.9186 60.637 18.4186 61.2204 18.4186C61.8037 18.4186 62.3037 17.9186 62.3037 17.3352V14.0852C62.3037 12.2519 61.387 10.6686 59.2204 10.6686C58.5537 10.6686 57.7204 10.7519 56.887 11.5852C56.887 11.1686 56.4704 10.7519 56.0537 10.7519C55.637 10.7519 55.2204 11.0852 55.2204 11.5852V17.3352C55.2204 17.9186 55.7204 18.4186 56.3037 18.4186C56.887 18.4186 57.387 17.9186 57.387 17.3352ZM68.8037 15.2519C68.9704 15.4186 69.137 15.5019 69.387 15.5019C69.5537 15.5019 69.7204 15.3352 69.8037 15.2519L72.3037 12.5019V17.3352C72.3037 17.9186 72.8037 18.4186 73.387 18.4186C73.9704 18.4186 74.4704 17.9186 74.4704 17.3352V7.75191C74.387 7.58525 74.2204 7.50191 74.0537 7.50191C73.887 7.50191 73.7204 7.66858 73.637 7.75191L69.637 12.2519C69.5537 12.4186 69.387 12.5019 69.3037 12.5019C69.2204 12.5019 69.0537 12.4186 68.9704 12.2519L64.9704 7.75191C64.887 7.66858 64.7204 7.50191 64.5537 7.50191C64.387 7.50191 64.2204 7.58525 64.137 7.75191V17.3352C64.137 17.9186 64.637 18.4186 65.2204 18.4186C65.8037 18.4186 66.3037 17.9186 66.3037 17.3352V12.5019L68.8037 15.2519ZM81.387 14.5852C81.387 15.7519 80.637 16.5852 79.637 16.5852C78.7204 16.5852 77.9704 15.6686 77.9704 14.5852C77.9704 13.4186 78.7204 12.6686 79.637 12.6686C80.5537 12.6686 81.387 13.4186 81.387 14.5852ZM81.9704 17.3352V17.5852C81.9704 18.0852 82.3037 18.4186 82.8037 18.3352C83.2204 18.3352 83.637 18.0019 83.637 17.5019V11.5019C83.637 11.0852 83.2204 10.6686 82.8037 10.6686C82.3037 10.6686 81.9704 11.0019 81.9704 11.5019V11.7519C81.0537 10.6686 79.8037 10.5852 79.4704 10.5852C77.387 10.5852 75.887 12.3352 75.887 14.5019C75.887 16.6686 77.387 18.5019 79.387 18.5019C80.2204 18.5019 81.5537 18.1686 81.9704 17.3352ZM89.3037 12.5852H89.5537C90.0537 12.5852 90.4704 12.1686 90.5537 11.6686C90.5537 11.0852 90.0537 10.6686 89.5537 10.6686H89.3037C88.637 10.6686 88.0537 10.8352 87.2204 11.5852C87.2204 11.1686 86.8037 10.7519 86.387 10.7519C85.9704 10.7519 85.5537 11.0852 85.5537 11.5852V17.3352C85.5537 17.9186 86.0537 18.4186 86.637 18.4186C87.2204 18.4186 87.7204 17.9186 87.7204 17.3352V14.3352C87.7204 13.4186 87.9704 12.6686 89.3037 12.5852ZM97.9704 17.3352C97.9704 17.1686 97.887 17.0019 97.8037 16.8352L95.8037 14.5019L97.7204 12.3352C97.887 12.1686 97.887 12.0019 97.887 11.8352C97.887 11.2519 97.387 10.7519 96.887 10.7519C96.5537 10.7519 96.2204 11.0852 95.9704 11.3352L93.4704 14.0852V8.58525C93.4704 8.00191 92.9704 7.50191 92.387 7.50191C91.8037 7.50191 91.3037 8.00191 91.3037 8.58525V17.3352C91.3037 17.9186 91.8037 18.4186 92.387 18.4186C92.9704 18.4186 93.4704 17.9186 93.4704 17.3352V15.0019L95.9704 17.8352C96.2204 18.1686 96.4704 18.4186 96.887 18.4186C97.4704 18.4186 97.9704 17.9186 97.9704 17.3352ZM100.47 13.9186C100.47 13.0019 101.387 12.6686 101.97 12.6686C102.554 12.6686 103.554 12.9186 103.554 13.9186H100.47ZM100.47 15.2519H104.804C105.304 15.2519 105.637 14.8352 105.554 14.4186C105.554 12.0019 103.97 10.6686 101.887 10.6686C99.3037 10.6686 98.2204 12.5019 98.2204 14.6686C98.2204 17.4186 100.054 18.5852 102.22 18.5852C103.054 18.5852 103.887 18.5019 104.554 18.0019C104.804 17.8352 105.054 17.5852 105.054 17.2519C105.054 16.7519 104.72 16.3352 104.22 16.3352C103.97 16.3352 103.804 16.4186 103.637 16.5019C103.22 16.6686 102.637 16.7519 102.22 16.7519C101.72 16.7519 100.47 16.5019 100.47 15.2519ZM110.22 18.5019H110.804C111.304 18.5019 111.72 18.0852 111.804 17.5852C111.804 17.0019 111.387 16.5852 110.887 16.5852H110.554C109.887 16.5852 109.804 16.3352 109.804 14.8352V12.5852H110.72C111.304 12.5852 111.72 12.0852 111.72 11.5852C111.72 11.0019 111.22 10.5852 110.72 10.5852H109.804V8.58525C109.804 8.00191 109.304 7.50191 108.72 7.50191C108.137 7.50191 107.637 8.00191 107.637 8.58525V10.5852H107.054C106.47 10.5852 106.054 11.0019 106.054 11.5852C106.054 12.0852 106.554 12.5852 107.054 12.5852H107.637V15.2519C107.637 17.7519 108.554 18.5019 110.22 18.5019ZM121.637 9.25191C121.637 8.91858 121.387 8.50191 121.137 8.33525C120.304 7.66858 119.22 7.33525 117.887 7.41858C114.887 7.41858 112.387 9.91858 112.387 13.0019C112.387 16.0852 114.887 18.5852 117.887 18.5852C119.22 18.5852 120.554 18.0852 121.47 17.2519C121.72 17.0852 121.97 16.7519 121.97 16.4186C121.97 15.8352 121.554 15.4186 121.054 15.4186C120.887 15.4186 120.637 15.5019 120.47 15.5852C119.804 16.1686 118.97 16.5852 117.97 16.5852C115.97 16.5852 114.637 15.0019 114.637 13.0019C114.637 11.0019 115.97 9.41858 117.97 9.41858C118.804 9.41858 119.554 9.66858 120.22 10.1686C120.387 10.2519 120.47 10.2519 120.637 10.2519C121.137 10.2519 121.637 9.83524 121.637 9.25191ZM128.387 14.5852C128.387 15.7519 127.637 16.5852 126.637 16.5852C125.637 16.5852 124.887 15.6686 124.97 14.5852C124.97 13.4186 125.72 12.6686 126.637 12.6686C127.554 12.6686 128.387 13.4186 128.387 14.5852ZM128.887 17.3352V17.5852C128.887 18.0852 129.22 18.4186 129.72 18.3352C130.137 18.3352 130.554 18.0019 130.554 17.5019V11.5019C130.554 11.0852 130.137 10.6686 129.72 10.6686C129.22 10.6686 128.887 11.0019 128.887 11.5019V11.7519C127.97 10.6686 126.72 10.5852 126.387 10.5852C124.304 10.5852 122.804 12.3352 122.804 14.5019C122.804 16.6686 124.304 18.5019 126.304 18.5019C127.137 18.5019 128.47 18.1686 128.887 17.3352ZM138.137 14.5852C138.137 15.6686 137.387 16.5852 136.47 16.5852C135.47 16.5852 134.637 15.7519 134.72 14.5852C134.72 13.4186 135.554 12.6686 136.47 12.6686C137.387 12.6686 138.137 13.4186 138.137 14.5852ZM134.637 20.6686V17.9186C135.22 18.3352 136.137 18.5019 136.72 18.5852C138.72 18.5852 140.22 16.7519 140.22 14.5852C140.22 12.4186 138.72 10.6686 136.637 10.6686C135.887 10.6686 134.97 10.8352 134.137 11.6686C134.137 11.1686 133.72 10.7519 133.304 10.7519C132.887 10.7519 132.47 11.0852 132.47 11.5852V20.6686C132.47 21.2519 132.97 21.7519 133.554 21.7519C134.137 21.7519 134.637 21.2519 134.637 20.6686Z" fill="white" fill-opacity="0.8"></path>
                                 <path fill-rule="evenodd" clip-rule="evenodd" d="M23.9704 12.4186C23.9704 5.75191 18.637 0.418579 12.137 0.418579C5.63704 0.418579 0.303711 5.83525 0.303711 12.4186C0.303711 19.0019 5.63704 24.4186 12.137 24.4186C15.137 24.4186 17.9704 23.2519 20.2204 21.1686C20.637 20.7519 20.7204 20.0852 20.3037 19.5852C19.887 19.1686 19.2204 19.0852 18.8037 19.5019C17.0537 21.1686 14.637 22.1686 12.2204 22.1686C9.38704 22.1686 6.80371 20.9186 4.97038 18.9186L10.0537 10.7519V14.5019C10.0537 16.3352 10.7204 16.9186 11.3037 17.0852C11.887 17.2519 12.8037 17.1686 13.7204 15.5852L16.4704 11.0852C16.5537 10.9186 16.637 10.8352 16.7204 10.6686V12.9186C16.7204 14.5852 17.387 15.9186 18.5537 16.5852C19.637 17.1686 20.9704 17.1686 22.0537 16.4186C23.387 15.8352 24.0537 14.2519 23.9704 12.4186ZM19.637 14.8352C19.9704 15.0852 20.4704 15.0019 20.887 14.7519C21.5537 14.3352 21.887 13.5019 21.8037 12.4186C21.8037 7.00191 17.4704 2.50191 12.137 2.50191C6.80371 2.50191 2.47038 6.91858 2.47038 12.3352C2.47038 14.0019 2.88704 15.5852 3.63704 17.0019L9.22038 8.00191C9.88704 7.00191 10.5537 6.91858 11.0537 7.08525C11.7204 7.25191 12.137 7.91858 12.137 9.08525V14.0852L14.637 10.0019L14.6447 9.98964C15.0669 9.31406 16.1456 7.58778 17.5537 8.00191C18.387 8.25191 18.887 9.16858 18.887 10.4186V13.0852C18.887 13.9186 19.137 14.5852 19.637 14.8352Z" fill="#2B6AFF"></path>
                              </svg>