<?xml version="1.0" standalone="no"?>
<!DOCTYPE svg PUBLIC "-//W3C//DTD SVG 20010904//EN"
 "http://www.w3.org/TR/2001/REC-SVG-20010904/DTD/svg10.dtd">
<svg version="1.0" xmlns="http://www.w3.org/2000/svg"
 width="120" height="35" viewBox="0 0 500.000000 500.000000"
 preserveAspectRatio="xMidYMid meet">

<g transform="translate(0.000000,500.000000) scale(0.100000,-0.100000)"
fill="#000000" stroke="none">
<path d="M1723 3611 c-87 -22 -168 -101 -193 -191 -6 -22 -10 -365 -10 -901
l0 -866 -39 -12 c-47 -14 -88 -59 -97 -106 -8 -42 19 -100 59 -129 28 -21 36
-21 1044 -24 1008 -2 1016 -2 1059 18 45 22 74 67 74 115 0 56 -52 117 -110
130 l-30 7 0 866 c0 559 -4 880 -10 904 -18 63 -70 129 -130 162 l-55 31 -765
2 c-421 1 -779 -2 -797 -6z m1588 -84 c29 -16 54 -40 74 -72 l30 -48 3 -914 3
-913 48 0 c35 0 53 -5 66 -20 26 -29 22 -70 -9 -97 l-27 -23 -1004 2 c-970 3
-1004 4 -1024 22 -26 24 -28 77 -3 99 9 9 40 17 67 19 l50 3 5 921 5 920 27
41 c15 23 44 49 70 62 43 21 46 21 809 21 l766 0 44 -23z"/>
<path d="M1748 3399 c-16 -9 -18 -30 -18 -210 l0 -199 773 2 772 3 0 191 c0
147 -3 195 -14 207 -12 16 -78 17 -755 17 -485 -1 -747 -4 -758 -11z m311
-155 c27 -35 26 -59 -4 -89 -20 -20 -34 -25 -78 -25 -67 0 -107 26 -107 71 0
49 30 69 104 69 58 0 67 -3 85 -26z m281 6 c27 -27 25 -66 -5 -95 -20 -21 -34
-25 -80 -25 -46 0 -60 4 -80 25 -30 29 -32 68 -5 95 16 16 33 20 85 20 52 0
69 -4 85 -20z"/>
<path d="M1730 2215 l0 -635 773 2 772 3 3 633 2 632 -775 0 -775 0 0 -635z
m992 -302 c26 -25 28 -32 28 -113 0 -81 -2 -88 -28 -113 -26 -25 -34 -27 -120
-27 l-92 0 0 140 0 140 92 0 c86 0 94 -2 120 -27z m162 -55 l46 -83 0 83 0 82
35 0 c29 0 35 -4 35 -22 l0 -21 23 21 c20 19 35 22 115 22 91 0 92 0 92 -25 0
-24 -2 -25 -69 -25 -49 0 -72 -4 -81 -15 -22 -27 5 -45 68 -45 43 0 61 -5 79
-22 31 -29 32 -92 1 -125 -20 -21 -30 -23 -120 -23 l-99 0 3 28 c3 27 4 27 81
30 57 2 79 7 84 18 10 28 -17 44 -75 44 -43 0 -61 5 -79 22 l-23 21 0 -81 0
-82 -34 0 c-32 0 -37 4 -82 85 -26 46 -51 82 -56 79 -4 -3 -8 -41 -8 -85 l0
-79 -30 0 -30 0 0 140 0 140 39 0 c39 0 40 -1 85 -82z"/>
<path d="M2580 1801 l0 -91 39 0 c54 0 62 15 59 102 l-3 73 -47 3 -48 3 0 -90z"/>
</g>
</svg>
