<?xml version="1.0" standalone="no"?>
<!DOCTYPE svg PUBLIC "-//W3C//DTD SVG 20010904//EN"
 "http://www.w3.org/TR/2001/REC-SVG-20010904/DTD/svg10.dtd">
<svg version="1.0" xmlns="http://www.w3.org/2000/svg"
 width="500.000000pt" height="500.000000pt" viewBox="0 0 500.000000 500.000000"
 preserveAspectRatio="xMidYMid meet">

<g transform="translate(0.000000,500.000000) scale(0.100000,-0.100000)"
fill="#000000" stroke="none">
<path d="M2069 3497 c-50 -33 -69 -79 -69 -164 l0 -73 -109 0 c-102 0 -112 -2
-138 -24 -27 -23 -28 -28 -31 -130 l-4 -106 -59 0 c-68 0 -114 -16 -147 -53
-50 -54 -34 -158 30 -197 25 -15 50 -20 106 -20 l72 0 0 -44 0 -43 -76 -6
c-83 -6 -115 -21 -144 -70 -25 -41 -25 -93 0 -134 28 -46 67 -63 150 -63 l70
0 0 -50 0 -50 -72 0 c-84 0 -114 -12 -145 -59 -39 -58 -25 -134 33 -180 22
-17 41 -21 105 -21 l79 0 0 -94 c0 -52 4 -106 10 -120 16 -42 57 -56 170 -56
l100 0 0 -70 c0 -81 16 -128 55 -158 61 -48 146 -32 192 37 19 28 23 48 23
112 l0 79 45 0 45 0 0 -57 c0 -116 40 -185 115 -199 30 -5 48 -2 80 15 60 32
75 64 75 160 l0 81 50 0 50 0 0 -81 c0 -95 19 -137 74 -163 43 -20 69 -20 113
1 56 26 73 64 73 161 l0 82 105 0 c165 0 185 19 185 181 l0 89 79 0 c89 0 123
17 147 76 18 44 18 68 -3 111 -25 54 -65 73 -150 73 l-73 0 0 50 0 50 73 0
c86 0 125 19 151 75 29 60 8 134 -48 171 -14 9 -57 18 -100 21 l-76 6 0 43 0
44 66 0 c90 0 131 21 156 78 23 51 19 96 -14 137 -29 38 -76 55 -148 55 l-60
0 0 85 c0 100 -17 151 -55 165 -15 6 -73 10 -131 10 l-104 0 0 84 c0 102 -21
143 -88 166 -37 13 -47 13 -84 0 -67 -23 -88 -64 -88 -166 l0 -84 -50 0 -50 0
0 84 c0 70 -4 88 -23 117 -44 65 -137 75 -198 21 -34 -31 -48 -79 -49 -164 l0
-58 -45 0 -45 0 0 78 c0 92 -19 136 -71 164 -45 24 -89 23 -130 -5z m794 -517
c24 -19 26 -28 29 -108 3 -84 4 -87 28 -90 59 -8 60 -13 60 -272 0 -256 -2
-264 -55 -278 l-30 -8 -3 -89 c-2 -65 -7 -94 -19 -107 -15 -17 -43 -18 -372
-18 -196 0 -361 4 -368 8 -21 13 -33 62 -33 138 0 68 -2 74 -20 74 -12 0 -32
11 -45 25 l-25 24 0 224 c0 212 1 226 21 251 12 15 30 26 45 26 23 0 24 2 24
75 0 82 12 118 44 133 13 7 147 11 357 11 324 1 337 0 362 -19z"/>
<path d="M2152 2948 c-8 -8 -12 -46 -12 -105 l0 -93 -26 0 c-14 0 -34 -5 -45
-10 -18 -10 -19 -23 -19 -225 0 -117 3 -220 6 -229 4 -11 19 -16 45 -16 l39 0
0 -103 c0 -67 4 -107 12 -115 9 -9 99 -12 344 -12 289 0 335 2 348 16 12 12
16 38 16 115 l0 99 33 0 c18 0 38 5 45 12 9 9 12 73 12 224 0 234 -2 244 -61
244 l-29 0 0 86 c0 136 35 124 -358 124 -250 0 -341 -3 -350 -12z m180 -325
c10 -9 18 -29 18 -45 0 -25 -3 -28 -34 -28 -26 0 -35 5 -39 21 -5 17 -12 20
-49 17 l-43 -3 0 -85 0 -85 28 -3 c29 -4 77 21 77 38 0 6 -11 10 -25 10 -20 0
-25 5 -25 25 0 24 3 25 60 25 l60 0 0 -75 0 -75 -35 0 c-21 0 -35 5 -35 12 0
9 -3 9 -12 0 -19 -19 -128 -15 -150 5 -26 23 -27 217 -1 245 23 25 177 27 205
1z m270 0 c17 -15 18 -15 18 0 0 13 9 17 35 17 l35 0 0 -109 c0 -118 1 -121
59 -121 45 0 51 15 51 127 l0 103 35 0 35 0 0 -117 c0 -106 -2 -119 -22 -140
-19 -20 -31 -23 -106 -23 -75 0 -86 2 -103 23 -11 13 -18 38 -19 61 0 37 -1
38 -18 23 -13 -12 -37 -17 -80 -17 l-62 0 0 -45 c0 -45 0 -45 -35 -45 l-35 0
0 140 0 140 97 0 c76 0 100 -4 115 -17z"/>
<path d="M2462 2548 c3 -43 3 -43 42 -43 45 0 62 19 52 58 -6 24 -11 27 -52
27 l-45 0 3 -42z"/>
</g>
</svg>
