<?xml version="1.0" standalone="no"?>
<!DOCTYPE svg PUBLIC "-//W3C//DTD SVG 20010904//EN"
 "http://www.w3.org/TR/2001/REC-SVG-20010904/DTD/svg10.dtd">
<svg version="1.0" xmlns="http://www.w3.org/2000/svg"
 width="500.000000pt" height="500.000000pt" viewBox="0 0 500.000000 500.000000"
 preserveAspectRatio="xMidYMid meet">

<g transform="translate(0.000000,500.000000) scale(0.100000,-0.100000)"
fill="#000000" stroke="none">
<path d="M1786 3507 c-58 -33 -76 -75 -76 -174 l0 -83 880 0 880 0 0 89 c0
101 -18 140 -80 172 -33 18 -74 19 -800 19 l-765 0 -39 -23z m175 -56 c20 -20
29 -39 29 -61 0 -43 -47 -90 -90 -90 -41 0 -90 47 -90 87 0 81 94 121 151 64z
m218 14 c33 -16 41 -33 41 -81 0 -46 -39 -84 -87 -84 -89 0 -117 125 -38 168
27 15 51 15 84 -3z m259 -21 c12 -14 22 -38 22 -55 0 -42 -48 -89 -90 -89 -41
0 -90 47 -90 87 0 83 102 120 158 57z m903 7 c38 -39 40 -88 3 -125 l-27 -26
-227 0 -227 0 -27 26 c-38 39 -36 93 5 128 l31 26 220 0 220 0 29 -29z"/>
<path d="M1870 3415 c-26 -32 13 -81 48 -59 34 22 22 74 -18 74 -10 0 -23 -7
-30 -15z"/>
<path d="M2100 3410 c-15 -28 4 -60 35 -60 31 0 50 32 35 60 -6 12 -21 20 -35
20 -14 0 -29 -8 -35 -20z"/>
<path d="M2340 3415 c-26 -32 13 -81 48 -59 34 22 22 74 -18 74 -10 0 -23 -7
-30 -15z"/>
<path d="M2873 3423 c-19 -7 -16 -60 3 -67 9 -3 105 -6 214 -6 109 0 205 3
214 6 9 4 16 18 16 34 0 16 -7 30 -16 34 -19 7 -413 7 -431 -1z"/>
<path d="M1710 3110 l0 -90 744 -2 744 -3 44 -30 c23 -17 53 -49 65 -70 22
-39 23 -48 23 -347 0 -271 2 -308 15 -308 24 0 67 25 95 55 l25 27 3 429 3
429 -881 0 -880 0 0 -90z"/>
<path d="M1600 2948 c-59 -40 -72 -67 -77 -162 l-6 -86 888 0 888 0 -6 86 c-5
95 -18 122 -77 162 l-33 22 -772 0 -772 0 -33 -22z m175 -53 c31 -30 33 -82 4
-119 -16 -21 -29 -26 -63 -26 -55 0 -88 32 -88 86 0 76 94 113 147 59z m239
-6 c28 -33 32 -59 14 -92 -18 -34 -39 -46 -81 -47 -51 0 -87 35 -87 85 0 82
101 117 154 54z m231 6 c56 -55 16 -145 -63 -145 -50 0 -86 36 -86 85 0 77 95
115 149 60z m915 0 c16 -17 24 -37 24 -60 0 -23 -8 -43 -24 -60 l-23 -25 -228
0 c-125 0 -235 3 -244 6 -19 8 -45 55 -45 83 0 11 12 33 26 50 l26 31 232 0
233 0 23 -25z"/>
<path d="M1688 2860 c-18 -15 -21 -22 -12 -36 21 -35 42 -40 65 -17 24 24 21
46 -10 62 -15 8 -24 6 -43 -9z"/>
<path d="M1928 2869 c-44 -25 -3 -93 42 -69 26 14 26 56 1 70 -23 12 -22 12
-43 -1z"/>
<path d="M2158 2860 c-25 -20 -19 -43 16 -64 14 -9 21 -6 36 12 35 43 -10 87
-52 52z"/>
<path d="M2686 2864 c-9 -8 -16 -22 -16 -29 0 -7 7 -21 16 -29 13 -14 47 -16
218 -16 184 0 204 2 219 18 23 25 21 38 -5 56 -33 24 -409 23 -432 0z"/>
<path d="M1524 2637 c-3 -8 -4 -196 -2 -418 3 -384 4 -406 23 -439 12 -21 39
-44 65 -57 44 -23 49 -23 457 -23 l413 0 0 145 c0 141 1 145 24 160 22 15 24
24 28 113 4 112 27 171 88 232 59 59 122 84 210 85 122 0 214 -56 272 -168 17
-33 23 -64 26 -142 4 -94 6 -101 31 -122 25 -20 26 -25 31 -159 l5 -137 32 27
c62 52 64 67 61 511 l-3 400 -878 3 c-726 2 -878 0 -883 -11z m394 -284 l3
-113 -111 0 -110 0 0 108 c0 60 3 112 7 116 4 4 52 5 107 4 l101 -3 3 -112z
m437 57 c0 -13 -26 -15 -159 -18 -154 -2 -187 3 -171 27 4 8 58 11 168 9 136
-3 162 -5 162 -18z m110 -115 c0 -19 -8 -20 -214 -23 -127 -1 -219 2 -224 7
-5 5 -7 17 -4 26 6 13 33 15 224 13 210 -3 218 -4 218 -23z m-547 -322 l3
-113 -111 0 -110 0 0 108 c0 60 3 112 7 116 4 4 52 5 107 4 l101 -3 3 -112z
m507 57 c0 -13 -29 -15 -194 -18 -111 -1 -199 2 -204 7 -26 26 9 31 201 29
167 -3 197 -5 197 -18z m-70 -115 c0 -19 -8 -20 -159 -23 -160 -3 -184 2 -173
33 6 13 28 15 169 13 155 -3 163 -4 163 -23z"/>
<path d="M1742 2353 l3 -68 65 0 65 0 3 68 3 67 -71 0 -71 0 3 -67z"/>
<path d="M1742 1973 l3 -68 65 0 65 0 3 68 3 67 -71 0 -71 0 3 -67z"/>
<path d="M2746 2375 c-57 -20 -108 -66 -138 -125 -24 -46 -28 -64 -28 -141 l0
-89 30 0 30 0 0 82 c0 101 23 157 83 196 35 23 51 27 113 27 66 0 76 -3 111
-31 61 -49 76 -85 81 -186 l4 -88 31 0 30 0 -5 88 c-3 48 -13 105 -22 127 -51
120 -197 184 -320 140z"/>
<path d="M2785 2275 c-73 -25 -105 -86 -105 -197 l0 -58 151 0 151 0 -3 84
c-3 66 -9 91 -25 112 -45 61 -103 81 -169 59z"/>
<path d="M2527 1963 c-10 -9 -8 -465 1 -481 7 -9 75 -12 308 -10 l299 3 3 248
2 247 -303 0 c-167 0 -307 -3 -310 -7z m338 -67 c50 -21 71 -78 46 -124 -6
-12 -1 -47 15 -107 36 -135 43 -125 -90 -125 -66 0 -117 4 -121 10 -3 5 6 53
20 106 22 82 24 100 14 129 -17 45 3 92 45 111 38 16 31 16 71 0z"/>
<path d="M2808 1849 c-21 -12 -23 -41 -7 -68 9 -14 7 -35 -10 -98 -11 -44 -21
-85 -21 -91 0 -8 22 -12 65 -12 36 0 65 3 65 8 0 4 -11 45 -25 92 -22 77 -23
87 -9 108 14 21 14 26 -1 48 -17 26 -30 29 -57 13z"/>
</g>
</svg>
